<svg
        width="144"
        height="144"
        viewBox="0 0 742 742"

        xmlns="http://www.w3.org/2000/svg">
    <path
            fill="#94DBF3"
            d="M371 0C575.898 0 742 166.102 742 371C742 575.898 575.898 742 371 742C166.102 742 0 575.898 0 371C0 166.102 166.102 0 371 0ZM599.79 232.314C578.834 217.394 519.483 195.284 449.301 225.763L449.137 225.834L449.055 225.994L393.555 334.494L393.462 334.676L393.522 334.87C398.229 349.971 408.91 365.928 423.219 380.009C437.531 394.093 455.498 406.327 474.816 413.965C485.463 418.174 490.321 424.697 490.523 431.129C490.726 437.576 486.262 444.185 477.709 448.583C460.621 457.37 427.447 457.141 384.776 428.805L384.276 428.473L384.04 429.024L352.54 502.524L352.5 502.619V502.722C352.5 503.786 353.253 504.911 354.428 506.032C355.628 507.177 357.374 508.417 359.585 509.708C364.011 512.293 370.372 515.128 378.151 517.861C393.713 523.33 415.009 528.41 437.973 530.252C483.866 533.934 536.629 524.69 563.43 479.477C579.852 451.772 583.954 427.984 580.721 407.85C577.489 387.721 566.937 371.307 554.169 358.322C528.647 332.369 494.181 320.033 491.158 319.025C486.839 317.586 482.275 313.179 481.907 307.934C481.545 302.765 485.256 296.453 498.188 291.185C508.822 286.852 523.513 288.641 537.649 292.715C551.759 296.781 565.197 303.089 573.253 307.656L573.774 307.952L573.972 307.387L599.972 232.887L600.096 232.532L599.79 232.314ZM142.504 213.059L180.004 529.059L180.056 529.5H275.308L275.446 529.226L435.446 213.226L435.813 212.5H336.684L336.548 212.786L251.823 391.648L234.498 212.952L234.454 212.5H142.438L142.504 213.059Z"/>
</svg>
