<?xml version="1.0" encoding="UTF-8"?>
<svg width="873" height="873" viewBox="0 0 873 873" fill="none" xmlns="http://www.w3.org/2000/svg">
    <circle cx="436.5" cy="436.5" r="436.5" fill="var(--color-secondary)"/>
    <path d="M532 352.5C532 475.383 432.383 575 309.5 575C186.617 575 87 475.383 87 352.5C87 229.617 186.617 130 309.5 130C432.383 130 532 229.617 532 352.5ZM131.584 352.5C131.584 450.76 211.24 530.416 309.5 530.416C407.76 530.416 487.416 450.76 487.416 352.5C487.416 254.24 407.76 174.584 309.5 174.584C211.24 174.584 131.584 254.24 131.584 352.5Z" fill="var(--color-primary)"/>
    <path d="M377 315C377 298.026 369.836 281.747 357.083 269.745C344.331 257.743 327.035 251 309 251C290.965 251 273.669 257.743 260.917 269.745C248.164 281.747 241 298.026 241 315L309 315H377Z" fill="var(--color-primary)"/>
    <path d="M340.48 266.04C343.07 249.245 352.226 234.166 365.934 224.122L374.077 235.236C363.318 243.12 356.131 254.956 354.098 268.14L340.48 266.04Z" fill="var(--color-primary)"/>
    <circle cx="371" cy="229" r="7" fill="var(--color-primary)"/>
    <path d="M282.131 263.04C279.541 246.245 270.385 231.166 256.678 221.122L248.534 232.236C259.294 240.12 266.481 251.956 268.514 265.14L282.131 263.04Z" fill="var(--color-primary)"/>
    <circle cx="7" cy="7" r="7" transform="matrix(-1 0 0 1 258.612 219)" fill="var(--color-primary)"/>
    <g filter="url(#filter0_d_6_190)">
        <rect x="457.333" y="573.459" width="90.9907" height="269.066" rx="31" transform="rotate(-45.1295 457.333 573.459)" fill="var(--color-primary)"/>
    </g>
    <rect x="437" y="535.904" width="63.2793" height="145.943" transform="rotate(-45.2037 437 535.904)" fill="var(--color-primary)"/>
    <rect width="18" height="40.6783" transform="matrix(0.00384506 0.999993 0.999993 -0.00384506 186.999 378.004)" fill="var(--color-primary)"/>
    <ellipse cx="9" cy="9" rx="9" ry="9" transform="matrix(-1 8.74228e-08 8.74228e-08 1 196 378)" fill="var(--color-primary)"/>
    <rect width="18" height="44.6599" transform="matrix(-0.718828 0.695188 0.694671 0.719328 207.83 313.239)" fill="var(--color-primary)"/>
    <ellipse cx="9.88094" cy="9" rx="9.88094" ry="9" transform="matrix(-0.692147 -0.721756 -0.721756 0.692147 214.672 320.369)" fill="var(--color-primary)"/>
    <rect width="18" height="44.6599" transform="matrix(-0.718828 -0.695188 0.694671 -0.719328 206.83 458.747)" fill="var(--color-primary)"/>
    <ellipse cx="200.337" cy="452.519" rx="9.88095" ry="9" transform="rotate(133.8 200.337 452.519)" fill="var(--color-primary)"/>
    <path d="M303.398 470C303.398 474.97 299.358 479.048 294.414 478.532C274.642 476.468 256.064 467.638 241.88 453.372C225.564 436.963 216.398 414.706 216.398 391.5C216.398 368.294 225.564 346.037 241.88 329.628C242.428 329.077 242.984 328.535 243.545 328H303.398V470Z" fill="var(--color-primary)"/>
    <rect x="432.399" y="378.004" width="18" height="40.6783" transform="rotate(90.2203 432.399 378.004)" fill="var(--color-primary)"/>
    <ellipse cx="432.398" cy="387" rx="9" ry="9" fill="var(--color-primary)"/>
    <rect width="18" height="44.6599" transform="matrix(0.718828 0.695188 -0.694671 0.719328 411.568 313.239)" fill="var(--color-primary)"/>
    <ellipse cx="418.061" cy="319.467" rx="9.88095" ry="9" transform="rotate(-46.1997 418.061 319.467)" fill="var(--color-primary)"/>
    <rect width="18" height="44.6599" transform="matrix(0.718828 -0.695188 -0.694671 -0.719328 412.568 458.747)" fill="var(--color-primary)"/>
    <ellipse cx="9.88094" cy="9" rx="9.88094" ry="9" transform="matrix(0.692147 0.721756 0.721756 -0.692147 405.726 451.617)" fill="var(--color-primary)"/>
    <path d="M316 470C316 474.97 320.041 479.048 324.984 478.532C344.757 476.468 363.334 467.638 377.519 453.372C393.834 436.963 403 414.706 403 391.5C403 368.294 393.834 346.037 377.519 329.628C376.97 329.077 376.415 328.535 375.854 328H316V470Z" fill="var(--color-primary)"/>
    <path d="M599.969 505.246C581.479 504.009 567.352 497.336 557.586 485.227C547.885 473.052 543.035 455.832 543.035 433.566C543.035 418.527 545.77 405.441 551.238 394.309C556.707 383.176 564.487 374.615 574.578 368.625C584.734 362.635 596.681 359.641 610.418 359.641C630.796 359.641 646.486 365.891 657.488 378.391C668.491 390.826 673.992 408.241 673.992 430.637C673.992 447.824 670.314 462.57 662.957 474.875C655.665 487.115 645.477 495.741 632.391 500.754L639.617 505.441C646.388 510.129 652.215 513.71 657.098 516.184C661.98 518.723 666.603 519.992 670.965 519.992C672.853 519.992 675.164 519.439 677.898 518.332C680.633 517.29 683.074 516.249 685.223 515.207C687.371 514.165 688.771 513.417 689.422 512.961L695.965 523.02L699.969 528.977C698.927 529.628 696.453 531.092 692.547 533.371C688.706 535.65 684.279 537.831 679.266 539.914C674.318 541.997 669.891 543.039 665.984 543.039C662.013 543.039 658.009 542.128 653.973 540.305C650.001 538.482 645.477 535.845 640.398 532.395L599.969 505.246ZM609.441 384.641C598.048 384.641 589.617 388.482 584.148 396.164C578.745 403.781 576.043 415.923 576.043 432.59C576.043 448.736 578.582 460.78 583.66 468.723C588.803 476.665 596.714 480.637 607.391 480.637C618.719 480.637 627.15 476.633 632.684 468.625C638.217 460.617 640.984 448.28 640.984 431.613C640.984 415.467 638.445 403.618 633.367 396.066C628.354 388.449 620.379 384.641 609.441 384.641ZM829.07 503H765.398V486.008L780.438 480.637L775.652 465.988H731.219L726.238 480.441L741.863 486.008V503H681.414V486.008L696.062 480.441L740.008 362.57L772.039 361.984L815.008 480.441L829.07 486.008V503ZM754.07 397.238L738.25 444.602H769.012L754.07 397.238Z" fill="var(--color-primary)"/>
    <defs>
        <filter id="filter0_d_6_190" x="466.173" y="521.814" width="237.201" height="236.632" filterUnits="userSpaceOnUse" color-interpolation-filters="sRGB">
            <feFlood flood-opacity="0" result="BackgroundImageFix"/>
            <feColorMatrix in="SourceAlpha" type="matrix" values="0 0 0 0 0 0 0 0 0 0 0 0 0 0 0 0 0 0 127 0" result="hardAlpha"/>
            <feOffset dy="4"/>
            <feGaussianBlur stdDeviation="2"/>
            <feComposite in2="hardAlpha" operator="out"/>
            <feColorMatrix type="matrix" values="0 0 0 0 0 0 0 0 0 0 0 0 0 0 0 0 0 0 0.25 0"/>
            <feBlend mode="normal" in2="BackgroundImageFix" result="effect1_dropShadow_6_190"/>
            <feBlend mode="normal" in="SourceGraphic" in2="effect1_dropShadow_6_190" result="shape"/>
        </filter>
    </defs>
</svg>
