<?xml version="1.0" encoding="UTF-8"?>
<svg width="873" height="873" viewBox="0 0 873 873" fill="none" xmlns="http://www.w3.org/2000/svg">
    <circle cx="436.5" cy="436.5" r="436.5" fill="var(--color-secondary)"/>
    <path d="M564 330.5C564 453.383 464.383 553 341.5 553C218.617 553 119 453.383 119 330.5C119 207.617 218.617 108 341.5 108C464.383 108 564 207.617 564 330.5ZM163.584 330.5C163.584 428.76 243.24 508.416 341.5 508.416C439.76 508.416 519.416 428.76 519.416 330.5C519.416 232.24 439.76 152.584 341.5 152.584C243.24 152.584 163.584 232.24 163.584 330.5Z"
          fill="var(--color-primary)"/>
    <path d="M409 293C409 276.026 401.836 259.747 389.083 247.745C376.331 235.743 359.035 229 341 229C322.965 229 305.669 235.743 292.917 247.745C280.164 259.747 273 276.026 273 293L341 293H409Z"
          fill="var(--color-primary)"/>
    <path d="M372.48 244.04C375.07 227.245 384.226 212.166 397.934 202.122L406.077 213.236C395.318 221.121 388.131 232.956 386.098 246.14L372.48 244.04Z"
          fill="var(--color-primary)"/>
    <circle cx="403" cy="207" r="7" fill="var(--color-primary)"/>
    <path d="M314.131 241.04C311.541 224.245 302.385 209.166 288.678 199.122L280.534 210.236C291.294 218.121 298.481 229.956 300.514 243.14L314.131 241.04Z"
          fill="var(--color-primary)"/>
    <circle cx="7" cy="7" r="7" transform="matrix(-1 0 0 1 290.612 197)" fill="var(--color-primary)"/>
    <g filter="url(#filter0_d_10_46)">
        <rect x="489.333" y="551.459" width="90.9907" height="269.066" rx="31"
              transform="rotate(-45.1295 489.333 551.459)" fill="var(--color-primary)"/>
    </g>
    <rect x="469" y="513.904" width="63.2793" height="145.943" transform="rotate(-45.2037 469 513.904)"
          fill="var(--color-primary)"/>
    <rect width="18" height="40.6783" transform="matrix(0.00384506 0.999993 0.999993 -0.00384506 218.999 356.004)"
          fill="var(--color-primary)"/>
    <ellipse cx="9" cy="9" rx="9" ry="9" transform="matrix(-1 8.74228e-08 8.74228e-08 1 228 356)"
             fill="var(--color-primary)"/>
    <rect width="18" height="44.6599" transform="matrix(-0.718828 0.695188 0.694671 0.719328 239.83 291.239)"
          fill="var(--color-primary)"/>
    <ellipse cx="9.88094" cy="9" rx="9.88094" ry="9"
             transform="matrix(-0.692147 -0.721756 -0.721756 0.692147 246.672 298.369)" fill="var(--color-primary)"/>
    <rect width="18" height="44.6599" transform="matrix(-0.718828 -0.695188 0.694671 -0.719328 238.83 436.747)"
          fill="var(--color-primary)"/>
    <ellipse cx="232.337" cy="430.519" rx="9.88095" ry="9" transform="rotate(133.8 232.337 430.519)"
             fill="var(--color-primary)"/>
    <path d="M335.398 448C335.398 452.97 331.358 457.048 326.414 456.532C306.642 454.468 288.064 445.638 273.88 431.372C257.564 414.963 248.398 392.706 248.398 369.5C248.398 346.294 257.564 324.037 273.88 307.628C274.428 307.077 274.984 306.535 275.545 306H335.398V448Z"
          fill="var(--color-primary)"/>
    <rect x="464.399" y="356.004" width="18" height="40.6783" transform="rotate(90.2203 464.399 356.004)"
          fill="var(--color-primary)"/>
    <ellipse cx="464.398" cy="365" rx="9" ry="9" fill="var(--color-primary)"/>
    <rect width="18" height="44.6599" transform="matrix(0.718828 0.695188 -0.694671 0.719328 443.568 291.239)"
          fill="var(--color-primary)"/>
    <ellipse cx="450.061" cy="297.467" rx="9.88095" ry="9" transform="rotate(-46.1997 450.061 297.467)"
             fill="var(--color-primary)"/>
    <rect width="18" height="44.6599" transform="matrix(0.718828 -0.695188 -0.694671 -0.719328 444.568 436.747)"
          fill="var(--color-primary)"/>
    <ellipse cx="9.88094" cy="9" rx="9.88094" ry="9"
             transform="matrix(0.692147 0.721756 0.721756 -0.692147 437.726 429.617)" fill="var(--color-primary)"/>
    <path d="M348 448C348 452.97 352.041 457.048 356.984 456.532C376.757 454.468 395.334 445.638 409.519 431.372C425.834 414.963 435 392.706 435 369.5C435 346.294 425.834 324.037 409.519 307.628C408.97 307.077 408.415 306.535 407.854 306H348V448Z"
          fill="var(--color-primary)"/>
    <defs>
        <filter id="filter0_d_10_46" x="498.173" y="499.814" width="237.202" height="236.632"
                filterUnits="userSpaceOnUse" color-interpolation-filters="sRGB">
            <feFlood flood-opacity="0" result="BackgroundImageFix"/>
            <feColorMatrix in="SourceAlpha" type="matrix" values="0 0 0 0 0 0 0 0 0 0 0 0 0 0 0 0 0 0 127 0"
                           result="hardAlpha"/>
            <feOffset dy="4"/>
            <feGaussianBlur stdDeviation="2"/>
            <feComposite in2="hardAlpha" operator="out"/>
            <feColorMatrix type="matrix" values="0 0 0 0 0 0 0 0 0 0 0 0 0 0 0 0 0 0 0.25 0"/>
            <feBlend mode="normal" in2="BackgroundImageFix" result="effect1_dropShadow_10_46"/>
            <feBlend mode="normal" in="SourceGraphic" in2="effect1_dropShadow_10_46" result="shape"/>
        </filter>
    </defs>
</svg>
